<?xml version="1.0" encoding="utf-8"?>
<!-- Generator: Adobe Illustrator 17.1.0, SVG Export Plug-In . SVG Version: 6.00 Build 0)  -->
<!DOCTYPE svg PUBLIC "-//W3C//DTD SVG 1.1//EN" "http://www.w3.org/Graphics/SVG/1.1/DTD/svg11.dtd">
<svg version="1.1" id="Layer_1" xmlns="http://www.w3.org/2000/svg" xmlns:xlink="http://www.w3.org/1999/xlink" x="0px" y="0px"
	 viewBox="0 0 500 500" enable-background="new 0 0 500 500" xml:space="preserve">
<g>
	<path fill="#FFFFFF" d="M455,429c0,6.6-5.4,12-12,12H59c-6.6,0-12-5.4-12-12V100c0-6.6,5.4-12,12-12h384c6.6,0,12,5.4,12,12V429z"
		/>
	<path fill="none" stroke="#999999" stroke-width="9" stroke-miterlimit="10" d="M455.5,428.5c0,6.6-5.4,12-12,12h-384
		c-6.6,0-12-5.4-12-12v-329c0-6.6,5.4-12,12-12h384c6.6,0,12,5.4,12,12V428.5z"/>
</g>
<polyline fill="none" stroke="#999999" stroke-width="9" stroke-miterlimit="10" points="429,413.5 71.5,413.5 71.5,119 "/>
<polyline fill="none" stroke="#009999" stroke-width="18" stroke-miterlimit="10" points="458,27 333,309.8 298,272.5 237,353 
	213,305 130,240 71,330 "/>
</svg>
